/* XPM */
static char *_fed3a8623854a1b9a569ccca7fff136ProLFuG9LrEAIk9U[] = {
/* columns rows colors chars-per-pixel */
"64 64 2 1 ",
"  c black",
". c yellow",
/* pixels */
"                                                                ",
"                                                                ",
"                          ............                          ",
"                      ....................                      ",
"                    ........................                    ",
"                  ............................                  ",
"                ................................                ",
"              ....................................              ",
"             ......................................             ",
"            ........................................            ",
"           ..........................................           ",
"          ............................................          ",
"         ..............................................         ",
"        ................................................        ",
"       ..................................................       ",
"       ..................................................       ",
"      ....................................................      ",
"      ....................................................      ",
"     ......................................................     ",
"     ......................................................     ",
"    ........................................................    ",
"    ........................................................    ",
"   ..........................................................   ",
"   ..........................................................   ",
"   ..........................................................   ",
"   ..........................................................   ",
"  ............................................................  ",
"  ............................................................  ",
"  ............................................................  ",
"  ............................................................  ",
"  .............................  .............................  ",
"  ............................    ............................  ",
"  ............................    ............................  ",
"  ...........................       ..........................  ",
"  ...........................       ..........................  ",
"  ..........................         .........................  ",
"  ..........................         .........................  ",
"  .........................           ........................  ",
"   ........................           .......................   ",
"   .......................             ......................   ",
"   .......................             ......................   ",
"   ......................               .....................   ",
"    .....................               ....................    ",
"    ....................                 ...................    ",
"     ...................                 ..................     ",
"     ..................                   .................     ",
"      .................                   ................      ",
"      ................                     ...............      ",
"       ...............                     ..............       ",
"       ..............                       .............       ",
"        .............                       ............        ",
"         ...........                         ..........         ",
"          ..........                         .........          ",
"           ........                           .......           ",
"            .......                           ......            ",
"             .....                             ....             ",
"              ....                             ...              ",
"                .                              .                ",
"                                                                ",
"                                                                ",
"                                                                ",
"                                                                ",
"                                                                ",
"                                                                "
};
