/* XPM */
static char *_074db1904c64af784a158ce987c1026p7tqgdzkwAUjlgQC[] = {
/* columns rows colors chars-per-pixel */
"64 64 4 1 ",
"  c black",
". c red",
"X c #0045FF",
"o c white",
/* pixels */
"                                                                ",
"                                                                ",
"                                                                ",
"                                                                ",
"                          ..........                            ",
"                      ..................                        ",
"                    ......................                      ",
"                  ..........................                    ",
"                ..............................                  ",
"               ................................                 ",
"              ..................................                ",
"             ....................................               ",
"            ......................................              ",
"           ........................................             ",
"          ..........................................            ",
"         ............................................           ",
"         ............................................           ",
"        ..............................................          ",
"        ..............................................          ",
"       ................................................         ",
"       .........ooooooo.................ooooooo........         ",
"      ........ooooooooooo.............ooooooooooo.......        ",
"      ......ooooooooooooooo.........ooooooooooooooo.....        ",
"      ......oooXXXooooooooo.........oooXXXooooooooo.....        ",
"      .....oooXXXXXooooooooo.......oooXXXXXooooooooo....        ",
"     ......oooXXXXXooooooooo.......oooXXXXXooooooooo.....       ",
"     ......oooXXXXXooooooooo.......oooXXXXXooooooooo.....       ",
"     .......oooXXXooooooooo.........oooXXXooooooooo......       ",
"     .......ooooooooooooooo.........ooooooooooooooo......       ",
"     .........ooooooooooo.............ooooooooooo........       ",
"     ...........ooooooo.................ooooooo..........       ",
"     ....................................................       ",
"     ....................................................       ",
"     ....................................................       ",
"     ....................................................       ",
"     ................XX................XX................       ",
"     ................XX................XX................       ",
"     ................XXX.............XXXX................       ",
"     .................XXXX..........XXXX.................       ",
"     ..................XXXX.....XXXXXXX..................       ",
"     ....................XXXXXXXXXXXX....................       ",
"     .....................XXXXXXX........................       ",
"     ....................................................       ",
"     ....................................................       ",
"     ....................................................       ",
"     ....................................................       ",
"     ....................................................       ",
"     ....................................................       ",
"     ....................................................       ",
"     ....................................................       ",
"     ....................................................       ",
"     ....................................................       ",
"     ....................................................       ",
"     ....................................................       ",
"     ....................................................       ",
"     ............... ...............   ..................       ",
"     .....   .....   .....  .....      ... ...  ....... .       ",
"     ...     ....     ...    ...       ... ...   ..  .. .       ",
"     .                 ..    ..         .  ..                   ",
"                                                                ",
"                                                                ",
"                                                                ",
"                                                                ",
"                                                                "
};
