/* XPM */
static char *af590f2520ec4df282ce2e97f4584ad9On1xCrKHLKC2jUtF[] = {
/* columns rows colors chars-per-pixel */
"64 64 2 1 ",
"  c black",
". c white",
/* pixels */
"                                                                ",
"                             .........                          ",
"                           .............                        ",
"   ...................... ...............      ....             ",
"   ...................... .................    ............     ",
"   ...................... ......   .........   ..............   ",
"   ...................... .....      ........  ................ ",
"    ....                  ....        ........ ................ ",
"    ....                  ....          ...... ....     ....... ",
"    ....                  ....           ..... .....      ..... ",
"    ....                  ....            .... .....       .... ",
"    ....                  ....            .... .....       .... ",
"   ......                 ....            ....  ....       .... ",
"   .............          ....           .....  ....    ....... ",
"   ...............        ....          ......  ............... ",
"   ...............        ..........    ......  ............... ",
"   ...............        ...................   ..............  ",
"   ....      .....        ..................    ...........     ",
"   ....                   ..................    ........        ",
"   ....                   .................     .........       ",
"   ....                   .....   .........      .........      ",
"   ....                   .....     ........     ..........     ",
"   .....                  .....       ......     ...........    ",
"   .....                   ....        ......    ...........    ",
"   .................       ....         ......   ..... ......   ",
"    ................      .....         .......   ....  ......  ",
"    ................      .....          .......  ....  ......  ",
"    ................      .....           ......  ....   ...... ",
"                          .....            ...... ....    ......",
"                          ....              ..... ....    ......",
"                                            ..... ....     .....",
"                                             .... ....      ....",
"            ..                               .... ....      ....",
"           ...                                               ...",
"         .......                                             ...",
"        ........                                              ..",
"        ..........            .......                         ..",
"       .............          ..........           ..........  .",
"       .....  .......         ............         ..........  .",
"      ......  .......         ..............       ..........   ",
"      .....    .......         .............       ..........   ",
"      .....     ......         ....  .......       ..........   ",
"     .....       .....         ....   ......       ..........   ",
"     .....        ....         ....  .......        .........   ",
"     .....        ....         ............         .........   ",
"     ....         ....         ...........          .........   ",
"     ....         ....         ..........           .........   ",
"     ....         ....       ...........            ........    ",
"    .....         ....       ..........             ........    ",
"    .....         ....       ...........             .......    ",
"    .....         ....       ............            .......    ",
"    ....          ....       ..............           ......    ",
"    ....          ....          ............          ......    ",
"    .....         ....          .... ........         ....      ",
"    .....         ....          ....  .......         ....      ",
"    .....        .....          ....    .......                 ",
"     .....      ......          ....     .......                ",
"     ......   ........          ....     .........    .....     ",
"     ................           ....      ........    .....     ",
"      ..............            ....        ......    .....     ",
"      .............             ....         .....    .....     ",
"        .........                                     .....     ",
"                                                                ",
"                                                                "
};
