/* XPM */
static char *dca3a4669ec44bcdadff66e23865d16fKt2xkaPvAgYw70aF[] = {
/* columns rows colors chars-per-pixel */
"64 64 2 1 ",
"  c #FF000000",
". c yellow",
/* pixels */
"                                                                ",
"                                                                ",
"                          ............                          ",
"                      ....................                      ",
"                    ........................                    ",
"                  ............................                  ",
"                ................................                ",
"              ....................................              ",
"             ......................................             ",
"            ........................................            ",
"           ..........................................           ",
"          ............................................          ",
"         ..............................................         ",
"        ................................................        ",
"       ..................................................       ",
"       ..................................................       ",
"      ....................................................      ",
"       ...................................................      ",
"         ..................................................     ",
"           ................................................     ",
"             ...............................................    ",
"               .............................................    ",
"                 ............................................   ",
"                   ..........................................   ",
"                     ........................................   ",
"                       ......................................   ",
"                         .....................................  ",
"                           ...................................  ",
"                             .................................  ",
"                               ...............................  ",
"                                 .............................  ",
"                                  ............................  ",
"                                  ............................  ",
"                                 .............................  ",
"                               ...............................  ",
"                               ...............................  ",
"                             .................................  ",
"                           ...................................  ",
"                         ....................................   ",
"                       ......................................   ",
"                     ........................................   ",
"                   ..........................................   ",
"                 ...........................................    ",
"               .............................................    ",
"             ..............................................     ",
"           ................................................     ",
"         .................................................      ",
"      ....................................................      ",
"       ..................................................       ",
"       ..................................................       ",
"        ................................................        ",
"         ..............................................         ",
"          ............................................          ",
"           ..........................................           ",
"            ........................................            ",
"             ......................................             ",
"              ....................................              ",
"                ................................                ",
"                  ............................                  ",
"                    ........................                    ",
"                      ....................                      ",
"                          ............                          ",
"                                                                ",
"                                                                "
};
