/* XPM */
static char *_ab6063994cd4681dede2a3271c6b19bAjWfaM6cj6yoaiET[] = {
/* columns rows colors chars-per-pixel */
"64 64 2 1 ",
"  c #FF000000",
". c yellow",
/* pixels */
"                                                                ",
"                                                                ",
"                          ............                          ",
"                      ....................                      ",
"                    ........................                    ",
"                  ............................                  ",
"                ................................                ",
"              ....................................              ",
"             ......................................             ",
"            ........................................            ",
"           ..........................................           ",
"          ............................................          ",
"         ..............................................         ",
"        ................................................        ",
"       ..................................................       ",
"       ..................................................       ",
"      ....................................................      ",
"      .................................................         ",
"     ................................................           ",
"     ..............................................             ",
"    .............................................               ",
"    ...........................................                 ",
"   ..........................................                   ",
"   ........................................                     ",
"   ......................................                       ",
"   ....................................                         ",
"  ...................................                           ",
"  .................................                             ",
"  ...............................                               ",
"  ...............................                               ",
"  .............................                                 ",
"  ............................                                  ",
"  ............................                                  ",
"  .............................                                 ",
"  ...............................                               ",
"  .................................                             ",
"  ...................................                           ",
"  .....................................                         ",
"   ......................................                       ",
"   ........................................                     ",
"   ..........................................                   ",
"   ............................................                 ",
"    .............................................               ",
"    ...............................................             ",
"     ................................................           ",
"     ..................................................         ",
"      ...................................................       ",
"      ....................................................      ",
"       ..................................................       ",
"       ..................................................       ",
"        ................................................        ",
"         ..............................................         ",
"          ............................................          ",
"           ..........................................           ",
"            ........................................            ",
"             ......................................             ",
"              ....................................              ",
"                ................................                ",
"                  ............................                  ",
"                    ........................                    ",
"                      ....................                      ",
"                          ............                          ",
"                                                                ",
"                                                                "
};
