/* XPM */
static char *_80ba8afb96e4801fe56f4ce5ccdc1a1JvKQZQCET2B2KByd[] = {
/* columns rows colors chars-per-pixel */
"64 64 2 1 ",
"  c black",
". c yellow",
/* pixels */
"                                                                ",
"                                                                ",
"                                                                ",
"                                                                ",
"                                                                ",
"                                                                ",
"                .                              .                ",
"              ...                             ....              ",
"             ....                             .....             ",
"            ......                           .......            ",
"           .......                           ........           ",
"          .........                         ..........          ",
"         ..........                         ...........         ",
"        ............                       .............        ",
"       .............                       ..............       ",
"       ..............                     ...............       ",
"      ...............                     ................      ",
"      ................                   .................      ",
"     .................                   ..................     ",
"     ..................                 ...................     ",
"    ...................                 ....................    ",
"    ....................               .....................    ",
"   .....................               ......................   ",
"   ......................             .......................   ",
"   ......................             .......................   ",
"   .......................           ........................   ",
"  ........................           .........................  ",
"  .........................         ..........................  ",
"  .........................         ..........................  ",
"  ..........................       ...........................  ",
"  ..........................       ...........................  ",
"  ............................    ............................  ",
"  ............................    ............................  ",
"  .............................  .............................  ",
"  ............................................................  ",
"  ............................................................  ",
"  ............................................................  ",
"  ............................................................  ",
"   ..........................................................   ",
"   ..........................................................   ",
"   ..........................................................   ",
"   ..........................................................   ",
"    ........................................................    ",
"    ........................................................    ",
"     ......................................................     ",
"     ......................................................     ",
"      ....................................................      ",
"      ....................................................      ",
"       ..................................................       ",
"       ..................................................       ",
"        ................................................        ",
"         ..............................................         ",
"          ............................................          ",
"           ..........................................           ",
"            ........................................            ",
"             ......................................             ",
"              ....................................              ",
"                ................................                ",
"                  ............................                  ",
"                    ........................                    ",
"                      ....................                      ",
"                          ............                          ",
"                                                                ",
"                                                                "
};
